<svg width="512" height="512" viewBox="0 0 512 512" fill="none" xmlns="http://www.w3.org/2000/svg">
<path d="M490.667 504.889H25.1259C21.997 504.889 19.437 502.329 19.437 499.2V476.919C19.437 473.79 21.997 471.23 25.1259 471.23H490.667C493.796 471.23 496.356 473.79 496.356 476.919V499.2C496.356 502.329 493.796 504.889 490.667 504.889Z" fill="#F7F7F7"/>
<path d="M261.689 479.289C349.138 479.289 420.03 408.397 420.03 320.948C420.03 233.499 349.138 162.607 261.689 162.607C174.24 162.607 103.348 233.499 103.348 320.948C103.348 408.397 174.24 479.289 261.689 479.289Z" fill="#F3FAFF"/>
<path d="M457.956 432.782C461.322 424.201 464.735 414.673 461.559 406.044C460.8 403.959 459.615 401.73 460.326 399.597C461.274 396.705 465.067 395.71 466.299 392.96C467.721 389.926 465.493 386.418 466.062 383.147C466.631 379.828 469.902 377.647 473.079 376.462C476.255 375.277 479.716 374.519 482.276 372.338C487.159 368.071 486.59 360.439 485.499 353.991C484.409 347.591 483.603 340.006 488.296 335.502C479.668 337.161 470.85 338.868 463.36 343.419C455.87 347.97 449.896 356.03 450.323 364.8C450.56 369.209 452.267 373.902 450.276 377.79C448.095 382.009 442.264 383.668 440.794 388.172C439.087 393.339 444.16 398.08 446.151 403.153C448.047 407.941 447.147 413.298 447.573 418.37C448 423.49 450.655 429.274 455.727 430.033L457.956 432.782Z" fill="#929ED3"/>
<path opacity="0.31" d="M457.956 432.782C461.322 424.201 464.735 414.673 461.559 406.044C460.8 403.959 459.615 401.73 460.326 399.597C461.274 396.705 465.067 395.71 466.299 392.96C467.721 389.926 465.493 386.418 466.062 383.147C466.631 379.828 469.902 377.647 473.079 376.462C476.255 375.277 479.716 374.519 482.276 372.338C487.159 368.071 486.59 360.439 485.499 353.991C484.409 347.591 483.603 340.006 488.296 335.502C479.668 337.161 470.85 338.868 463.36 343.419C455.87 347.97 449.896 356.03 450.323 364.8C450.56 369.209 452.267 373.902 450.276 377.79C448.095 382.009 442.264 383.668 440.794 388.172C439.087 393.339 444.16 398.08 446.151 403.153C448.047 407.941 447.147 413.298 447.573 418.37C448 423.49 450.655 429.274 455.727 430.033L457.956 432.782Z" fill="white"/>
<path d="M454.495 421.547C454.4 396.61 459.236 344.415 488.012 335.692" stroke="white" stroke-width="0.75" stroke-miterlimit="10" stroke-linecap="round"/>
<path d="M437.902 430.696C432.782 421.12 427.473 410.453 429.985 399.881C430.601 397.321 431.644 394.572 430.554 392.154C429.084 388.93 424.486 388.219 422.637 385.185C420.599 381.867 422.684 377.41 421.547 373.665C420.409 369.825 416.284 367.787 412.444 366.791C408.604 365.843 404.433 365.464 401.114 363.188C394.809 358.874 394.43 349.819 394.809 342.187C395.188 334.554 395.093 325.547 388.978 320.948C399.313 321.707 409.884 322.513 419.271 326.827C428.658 331.141 436.812 339.769 437.476 350.104C437.807 355.271 436.433 361.007 439.324 365.321C442.453 369.967 449.517 371.105 451.887 376.178C454.59 382.009 449.327 388.219 447.668 394.43C446.151 400.261 447.905 406.424 448.095 412.444C448.284 418.465 445.961 425.624 440.13 427.236L437.902 430.696Z" fill="#929ED3"/>
<path d="M440.415 417.043C437.096 387.793 424.296 327.348 389.357 321.138" stroke="white" stroke-width="0.75" stroke-miterlimit="10" stroke-linecap="round"/>
<path d="M470.281 486.874H425.244C422.116 486.874 419.556 484.314 419.556 481.185L415.763 416.237C415.763 413.108 418.323 410.548 421.452 410.548H474.074C477.203 410.548 479.763 413.108 479.763 416.237L475.97 481.185C475.97 484.314 473.41 486.874 470.281 486.874Z" fill="#CCE9FF"/>
<path d="M61.8882 280.606L90.9486 276.2L110.706 406.503L81.6459 410.909L61.8882 280.606Z" fill="#929ED3"/>
<path d="M76.4083 278.415L90.9385 276.212L110.696 406.515L96.166 408.719L76.4083 278.415Z" fill="#929ED3"/>
<path d="M90.9748 276.338L61.9141 280.747L68.7407 263.253L72.6281 253.393L79.2652 261.689L90.9748 276.338Z" fill="#B9C1E1"/>
<path d="M79.2652 261.689L68.7407 263.253L72.6281 253.393L79.2652 261.689Z" fill="#28264A"/>
<path d="M114.307 246.367L143.582 248.989L131.827 380.254L102.552 377.633L114.307 246.367Z" fill="#929ED3"/>
<path d="M128.972 247.689L143.61 249L131.855 380.265L117.217 378.954L128.972 247.689Z" fill="#929ED3"/>
<path d="M143.597 249.126L114.299 246.519L125.108 231.159L131.224 222.483L135.68 232.107L143.597 249.126Z" fill="#B9C1E1"/>
<path d="M135.68 232.107L125.108 231.159L131.224 222.483L135.68 232.107Z" fill="#28264A"/>
<path d="M162.844 487.348H47.36L32.237 308.622H172.089L162.844 487.348Z" fill="#CCE9FF"/>
<path opacity="0.5" d="M102.163 487.348H162.844L172.089 308.622H102.163V487.348Z" fill="#CCE9FF"/>
<path d="M127.526 436.907H420.978V477.25H127.526V436.907Z" fill="#B9C1E1"/>
<path d="M128.759 436.907V477.25H436.622V480.284C436.622 484.03 433.351 487.064 429.321 487.064H130.086C120.557 487.064 112.83 479.953 112.83 471.135V444.16C112.83 435.342 120.557 428.231 130.086 428.231H429.321C433.351 428.231 436.622 431.265 436.622 435.01V436.954H128.759V436.907Z" fill="#929ED3"/>
<path d="M127.526 454.874H420.978V477.203H127.526V454.874Z" fill="#B9C1E1"/>
<path d="M165.452 387.793H403.911V422.874H165.452V387.793Z" fill="#CCE9FF"/>
<path d="M165.452 387.793V422.874H412.919V425.529C412.919 428.8 410.264 431.407 407.04 431.407H166.495C158.862 431.407 152.652 425.197 152.652 417.564V394.098C152.652 386.465 158.862 380.255 166.495 380.255H407.04C410.264 380.255 412.919 382.91 412.919 386.133V387.84H165.452V387.793Z" fill="#9B69CC"/>
<path d="M268.516 268.373C265.244 264.059 264.96 258.133 268.041 253.63C270.507 250.027 272.166 245.57 271.976 242.299C271.597 236.421 267.947 231.016 262.969 227.793C256.427 223.526 247.704 222.91 240.64 226.228C233.576 229.547 228.456 236.658 227.556 244.385C226.892 249.932 228.172 256 225.327 260.836C223.241 264.296 219.401 266.335 215.609 267.71C211.769 269.037 207.739 269.938 204.231 271.976C200.723 274.015 197.736 277.523 197.784 281.6C197.831 284.681 199.585 287.526 199.775 290.56C200.059 295.016 196.93 298.951 193.612 301.89C190.246 304.83 186.406 307.39 184.13 311.23C180.385 317.582 182.139 326.163 186.88 331.852C191.621 337.541 198.732 340.717 205.843 342.566C225.28 347.686 245.76 344.367 265.813 344.036C272.024 343.941 278.376 344.13 284.397 342.566C290.418 341.001 296.296 337.399 298.809 331.71C301.369 326.021 300.089 319.099 296.676 313.932C293.262 308.764 287.905 305.019 282.264 302.364C278.187 300.421 273.825 298.904 270.507 295.87C267.188 292.836 265.244 287.668 267.473 283.733C268.326 282.216 269.748 281.031 270.554 279.514C272.166 276.575 271.502 272.83 269.701 269.985C269.369 269.511 268.99 268.99 268.516 268.373Z" fill="#28264A"/>
<path d="M165.452 403.437H403.911V422.874H165.452V403.437Z" fill="#CCE9FF"/>
<path d="M273.067 353.659L302.459 374.519L338.489 448.948H331.852L291.556 383.052C291.556 383.052 277.807 383.526 273.067 379.259C268.326 374.993 241.067 356.504 241.067 356.504L273.067 353.659Z" fill="#28264A"/>
<path d="M221.061 347.686C215.704 362.193 219.496 382.578 237.511 383.526C255.526 384.474 261.215 383.526 261.215 383.526L296.296 454.637H304.356L276.859 374.993L243.437 356.504L221.061 347.686Z" fill="#28264A"/>
<path d="M248.415 265.007C253.156 271.17 264.533 288.237 268.8 307.2C273.067 326.163 284.919 353.659 284.919 353.659H271.17L257.896 308.622L245.57 266.43L248.415 265.007Z" fill="#9B69CC"/>
<path d="M263.016 239.834C263.727 251.449 258.655 259.413 251.401 259.793C244.148 260.172 239.407 249.647 241.588 239.834C246.661 231.111 253.582 230.4 253.582 230.4H257.944L263.016 239.834Z" fill="#FFE3CA"/>
<path d="M258.181 232.913C256.853 236.99 253.914 240.498 250.121 242.489C246.329 244.48 241.778 244.954 237.653 243.721L247.988 228.978H256.853L265.339 235.71L264.059 243.437C260.741 240.924 258.181 232.913 258.181 232.913Z" fill="#28264A"/>
<path d="M249.221 258.418C247.704 264.296 248.178 270.459 248.178 271.407C246.756 273.304 240.118 272.83 239.17 266.193C240.593 257.659 243.437 248.178 243.437 248.178L245.807 253.393L249.221 258.418Z" fill="#FFE3CA"/>
<path d="M240.118 261.167C234.193 263.111 214.281 272.119 213.333 274.015C214.756 279.23 221.867 356.504 221.867 356.504H254.104C254.104 356.504 249.837 313.837 252.207 310.993C254.578 308.148 262.163 298.193 261.215 296.77C260.267 295.348 248.225 264.77 248.225 264.77L240.118 261.167Z" fill="#9B69CC"/>
<path d="M213.333 274.015C208.687 277.57 189.156 309.57 195.319 326.637C201.481 343.704 221.63 353.754 221.63 353.754V344.367C221.63 344.367 205.274 331.378 206.222 321.896C207.17 312.415 218.548 292.978 218.548 292.978L213.333 274.015Z" fill="#9B69CC"/>
<path d="M289.707 361.956H219.923C217.742 361.956 215.941 360.154 215.941 357.973L214.044 313.316C214.044 311.135 215.846 309.333 218.027 309.333H290.655C292.836 309.333 294.637 311.135 294.637 313.316L293.689 357.973C293.689 360.154 291.887 361.956 289.707 361.956Z" fill="#929ED3"/>
<path d="M303.218 454.637C307.911 455.68 314.264 460.847 317.298 463.502C317.914 464.024 317.535 465.067 316.681 465.067C311.799 464.972 300.753 464.45 298.193 462.27C294.874 459.425 295.822 454.684 295.822 454.684H303.218V454.637ZM338.394 448.758C342.566 449.896 348.065 454.732 350.815 457.339C351.431 457.908 350.957 458.904 350.151 458.856C345.553 458.524 335.692 457.624 333.464 455.49C330.524 452.741 331.615 448.427 331.615 448.427L338.394 448.758Z" fill="#895DBE"/>
<path d="M254.578 342.756C258.505 342.756 261.689 339.572 261.689 335.644C261.689 331.717 258.505 328.533 254.578 328.533C250.65 328.533 247.467 331.717 247.467 335.644C247.467 339.572 250.65 342.756 254.578 342.756Z" fill="white"/>
<path d="M192 436.622L182.993 431.407L173.985 436.622V403.437H192V436.622ZM331.662 240.119C331.662 241.019 331.33 241.825 330.761 242.489C331.33 243.105 331.662 243.959 331.662 244.859V247.799C331.662 248.415 331.473 249.031 331.188 249.553C331.473 250.074 331.662 250.69 331.662 251.307V254.246C331.662 256.19 330.098 257.754 328.154 257.754H297.624C295.68 257.754 294.116 256.19 294.116 254.246V251.259C294.116 250.643 294.305 250.027 294.59 249.505C294.305 248.984 294.116 248.367 294.116 247.751V244.812C294.116 243.911 294.447 243.105 295.016 242.441C294.447 241.825 294.116 240.972 294.116 240.071V237.132C294.116 235.188 295.68 233.624 297.624 233.624H328.154C330.098 233.624 331.662 235.188 331.662 237.132V240.119ZM356.03 173.653C356.03 190.767 346.074 205.511 331.662 212.527V228.456C331.662 229.641 330.667 230.637 329.481 230.637H296.296C295.111 230.637 294.116 229.641 294.116 228.456V212.527C279.704 205.559 269.748 190.767 269.748 173.653C269.748 149.807 289.043 130.513 312.889 130.513C336.735 130.513 356.03 149.855 356.03 173.653Z" fill="#929ED3"/>
<path opacity="0.23" d="M327.585 242.726H298.667M327.585 249.363H298.667" stroke="#7F7F7F" stroke-width="2" stroke-miterlimit="10" stroke-linecap="round"/>
<path d="M320.284 178.963C319.763 178.489 319.004 178.252 318.199 178.347C317.203 178.441 316.255 179.01 315.639 179.816C315.117 180.527 314.833 181.381 314.69 182.187C314.264 181.95 313.79 181.713 313.363 181.428L313.221 181.333H312.604L312.462 181.428C311.988 181.713 311.561 181.95 311.135 182.187C310.993 181.381 310.708 180.527 310.187 179.816C309.618 179.01 308.622 178.441 307.627 178.347C306.821 178.252 306.11 178.489 305.541 178.963C304.83 179.627 304.593 180.575 304.83 181.57C305.209 182.898 306.299 183.988 307.579 184.225C308.385 184.367 309.144 184.32 309.95 184.13C311.135 199.538 311.609 215.135 311.277 230.542H312.699C313.031 215.087 312.557 199.443 311.372 184.036C311.372 183.893 311.372 183.751 311.324 183.609C311.893 183.372 312.415 183.087 312.936 182.756C313.458 183.04 313.979 183.372 314.548 183.609C314.548 183.751 314.548 183.893 314.501 184.036C313.316 199.443 312.841 215.087 313.173 230.542H314.596C314.264 215.135 314.738 199.49 315.923 184.13C316.682 184.32 317.487 184.415 318.293 184.225C319.526 183.988 320.664 182.898 321.043 181.57C321.233 180.575 320.996 179.627 320.284 178.963ZM307.816 182.898C307.105 182.756 306.394 182.044 306.157 181.238C306.062 180.907 306.015 180.385 306.442 180.053C306.679 179.816 307.01 179.769 307.247 179.769H307.437C308.006 179.816 308.622 180.148 309.001 180.67C309.428 181.239 309.665 181.95 309.76 182.756C309.096 182.945 308.48 182.993 307.816 182.898ZM319.621 181.238C319.384 182.044 318.72 182.756 317.962 182.898C317.345 183.04 316.682 182.945 316.065 182.756C316.207 181.95 316.397 181.239 316.824 180.67C317.156 180.196 317.772 179.864 318.388 179.769C318.673 179.721 319.052 179.769 319.384 180.053C319.716 180.385 319.668 180.907 319.621 181.238Z" fill="white"/>
<path d="M301.511 138.43C291.081 142.222 274.015 155.97 275.437 178.252" stroke="white" stroke-width="4" stroke-miterlimit="10" stroke-linecap="round"/>
<path d="M244.385 215.704C251.062 215.704 256.474 210.291 256.474 203.615C256.474 196.938 251.062 191.526 244.385 191.526C237.709 191.526 232.296 196.938 232.296 203.615C232.296 210.291 237.709 215.704 244.385 215.704Z" fill="#929ED3"/>
<path d="M373.807 169.244C376.818 169.244 379.259 166.804 379.259 163.793C379.259 160.782 376.818 158.341 373.807 158.341C370.796 158.341 368.356 160.782 368.356 163.793C368.356 166.804 370.796 169.244 373.807 169.244Z" fill="#929ED3"/>
<path d="M356.03 258.37C361.004 258.37 365.037 254.338 365.037 249.363C365.037 244.388 361.004 240.356 356.03 240.356C351.055 240.356 347.022 244.388 347.022 249.363C347.022 254.338 351.055 258.37 356.03 258.37Z" fill="#929ED3"/>
<path d="M269.748 132.741C274.723 132.741 278.756 128.708 278.756 123.733C278.756 118.759 274.723 114.726 269.748 114.726C264.774 114.726 260.741 118.759 260.741 123.733C260.741 128.708 264.774 132.741 269.748 132.741Z" fill="#929ED3"/>
<path opacity="0.14" d="M192 436.622L182.993 431.407L173.985 436.622V403.437H192V436.622Z" fill="#0C0C0C"/>
</svg>
