<svg width="180" height="140" viewBox="0 0 180 140" fill="none" xmlns="http://www.w3.org/2000/svg">
<path d="M74.1191 33.4661C74.1191 24.17 70.8747 16.1753 64.3861 9.48207C58.2579 3.16069 50.5075 0 41.135 0C28.1576 0 18.0641 4.64808 10.8545 13.9442C3.64486 23.6122 0.0400391 34.7676 0.0400391 47.4104C0.0400391 66.7463 5.62751 84.2231 16.8025 99.8406C27.9774 115.83 40.7745 129.216 55.1938 140L73.5784 121.036C68.8921 116.202 63.3046 110.252 56.8159 103.187C50.3273 96.1222 47.0829 88.8712 47.0829 81.4343C47.0829 76.6003 49.2458 72.324 53.5716 68.6056C58.2579 64.8871 62.7639 60.425 67.0897 55.2191C71.7759 50.0133 74.1191 42.7623 74.1191 33.4661ZM179.56 33.4661C179.56 24.17 176.316 16.1753 169.827 9.48207C163.699 3.16069 155.948 0 146.576 0C133.599 0 123.505 4.64808 116.295 13.9442C109.086 23.6122 105.481 34.7676 105.481 47.4104C105.481 66.7463 111.068 84.2231 122.243 99.8406C133.418 115.83 146.215 129.216 160.635 140L179.019 121.036C174.333 116.202 168.746 110.252 162.257 103.187C155.768 96.1222 152.524 88.8712 152.524 81.4343C152.524 76.6003 154.687 72.324 159.013 68.6056C163.699 64.8871 168.205 60.425 172.531 55.2191C177.217 50.0133 179.56 42.7623 179.56 33.4661Z" fill="#F2EFFE"/>
</svg>
