<svg width="36" height="28" viewBox="0 0 36 28" fill="none" xmlns="http://www.w3.org/2000/svg">
<path fill-rule="evenodd" clip-rule="evenodd" d="M4.5 0.5C3.30653 0.5 2.16193 0.974106 1.31802 1.81802C0.474106 2.66193 0 3.80653 0 5V11.75C0 12.9435 0.474106 14.0881 1.31802 14.932C2.16193 15.7759 3.30653 16.25 4.5 16.25H11.25C11.25 18.0402 10.5388 19.7571 9.27297 21.023C8.0071 22.2888 6.29021 23 4.5 23H2.25C1.65326 23 1.08097 23.2371 0.65901 23.659C0.237053 24.081 0 24.6533 0 25.25C0 25.8467 0.237053 26.419 0.65901 26.841C1.08097 27.2629 1.65326 27.5 2.25 27.5H4.5C7.48369 27.5 10.3452 26.3147 12.455 24.205C14.5647 22.0952 15.75 19.2337 15.75 16.25V5C15.75 3.80653 15.2759 2.66193 14.432 1.81802C13.5881 0.974106 12.4435 0.5 11.25 0.5H4.5ZM24.75 0.5C23.5565 0.5 22.4119 0.974106 21.568 1.81802C20.7241 2.66193 20.25 3.80653 20.25 5V11.75C20.25 12.9435 20.7241 14.0881 21.568 14.932C22.4119 15.7759 23.5565 16.25 24.75 16.25H31.5C31.5 18.0402 30.7888 19.7571 29.523 21.023C28.2571 22.2888 26.5402 23 24.75 23H22.5C21.9033 23 21.331 23.2371 20.909 23.659C20.4871 24.081 20.25 24.6533 20.25 25.25C20.25 25.8467 20.4871 26.419 20.909 26.841C21.331 27.2629 21.9033 27.5 22.5 27.5H24.75C27.7337 27.5 30.5952 26.3147 32.705 24.205C34.8147 22.0952 36 19.2337 36 16.25V5C36 3.80653 35.5259 2.66193 34.682 1.81802C33.8381 0.974106 32.6935 0.5 31.5 0.5H24.75Z" fill="#695CAE"/>
</svg>
